<svg xmlns="http://www.w3.org/2000/svg" version="1.1" xmlns:xlink="http://www.w3.org/1999/xlink" xmlns:svgjs="http://svgjs.dev/svgjs" width="1920" height="1080" preserveAspectRatio="none" viewBox="0 0 1920 1080"><g mask="url(&quot;#SvgjsMask1032&quot;)" fill="none"><rect width="1920" height="1080" x="0" y="0" fill="rgba(251, 251, 242, 1)"></rect><path d="M91.68 63.14L156.64 100.64L156.64 175.64L91.68 213.14L26.73 175.64L26.73 100.64zM156.64 -49.36L221.59 -11.86L221.59 63.14L156.64 100.64L91.68 63.14L91.68 -11.86zM221.59 63.14L286.55 100.64L286.55 175.64L221.59 213.14L156.64 175.64L156.64 100.64zM221.59 288.14L286.55 325.64L286.55 400.64L221.59 438.14L156.64 400.64L156.64 325.64zM156.64 850.64L221.59 888.14L221.59 963.14L156.64 1000.64L91.68 963.14L91.68 888.14zM351.5 63.14L416.45 100.64L416.45 175.64L351.5 213.14L286.55 175.64L286.55 100.64zM286.55 850.64L351.5 888.14L351.5 963.14L286.55 1000.64L221.59 963.14L221.59 888.14zM481.41 963.14L546.36 1000.64L546.36 1075.64L481.41 1113.14L416.45 1075.64L416.45 1000.64zM611.31 63.14L676.27 100.64L676.27 175.64L611.31 213.14L546.36 175.64L546.36 100.64zM611.31 513.14L676.27 550.64L676.27 625.64L611.31 663.14L546.36 625.64L546.36 550.64zM546.36 625.64L611.31 663.14L611.31 738.14L546.36 775.64L481.41 738.14L481.41 663.14zM611.31 738.14L676.27 775.64L676.27 850.64L611.31 888.14L546.36 850.64L546.36 775.64zM676.27 -49.36L741.22 -11.86L741.22 63.14L676.27 100.64L611.31 63.14L611.31 -11.86zM676.27 175.64L741.22 213.14L741.22 288.14L676.27 325.64L611.31 288.14L611.31 213.14zM741.22 513.14L806.18 550.64L806.18 625.64L741.22 663.14L676.27 625.64L676.27 550.64zM806.17 -49.36L871.13 -11.86L871.13 63.14L806.17 100.64L741.22 63.14L741.22 -11.86zM871.13 63.14L936.08 100.64L936.08 175.64L871.13 213.14L806.17 175.64L806.17 100.64zM806.17 175.64L871.13 213.14L871.13 288.14L806.17 325.64L741.22 288.14L741.22 213.14zM936.08 -49.36L1001.04 -11.86L1001.04 63.14L936.08 100.64L871.13 63.14L871.13 -11.86zM1001.04 63.14L1065.99 100.64L1065.99 175.64L1001.04 213.14L936.08 175.64L936.08 100.64zM1001.04 513.14L1065.99 550.64L1065.99 625.64L1001.04 663.14L936.08 625.64L936.08 550.64zM1130.94 63.14L1195.9 100.64L1195.9 175.64L1130.94 213.14L1065.99 175.64L1065.99 100.64zM1065.99 175.64L1130.94 213.14L1130.94 288.14L1065.99 325.64L1001.04 288.14L1001.04 213.14zM1065.99 400.64L1130.94 438.14L1130.94 513.14L1065.99 550.64L1001.04 513.14L1001.04 438.14zM1130.94 513.14L1195.9 550.64L1195.9 625.64L1130.94 663.14L1065.99 625.64L1065.99 550.64zM1065.99 1075.64L1130.94 1113.14L1130.94 1188.14L1065.99 1225.64L1001.04 1188.14L1001.04 1113.14zM1260.85 63.14L1325.8 100.64L1325.8 175.64L1260.85 213.14L1195.9 175.64L1195.9 100.64zM1260.85 513.14L1325.8 550.64L1325.8 625.64L1260.85 663.14L1195.9 625.64L1195.9 550.64zM1195.9 850.64L1260.85 888.14L1260.85 963.14L1195.9 1000.64L1130.94 963.14L1130.94 888.14zM1195.9 1075.64L1260.85 1113.14L1260.85 1188.14L1195.9 1225.64L1130.94 1188.14L1130.94 1113.14zM1325.81 -49.36L1390.76 -11.86L1390.76 63.14L1325.81 100.64L1260.85 63.14L1260.85 -11.86zM1390.76 288.14L1455.71 325.64L1455.71 400.64L1390.76 438.14L1325.81 400.64L1325.81 325.64zM1325.81 400.64L1390.76 438.14L1390.76 513.14L1325.81 550.64L1260.85 513.14L1260.85 438.14zM1390.76 513.14L1455.71 550.64L1455.71 625.64L1390.76 663.14L1325.81 625.64L1325.81 550.64zM1390.76 738.14L1455.71 775.64L1455.71 850.64L1390.76 888.14L1325.81 850.64L1325.81 775.64zM1520.67 63.14L1585.62 100.64L1585.62 175.64L1520.67 213.14L1455.71 175.64L1455.71 100.64zM1455.71 175.64L1520.67 213.14L1520.67 288.14L1455.71 325.64L1390.76 288.14L1390.76 213.14zM1455.71 850.64L1520.67 888.14L1520.67 963.14L1455.71 1000.64L1390.76 963.14L1390.76 888.14zM1585.62 175.64L1650.57 213.14L1650.57 288.14L1585.62 325.64L1520.67 288.14L1520.67 213.14zM1585.62 400.64L1650.57 438.14L1650.57 513.14L1585.62 550.64L1520.67 513.14L1520.67 438.14zM1585.62 850.64L1650.57 888.14L1650.57 963.14L1585.62 1000.64L1520.67 963.14L1520.67 888.14zM1585.62 1075.64L1650.57 1113.14L1650.57 1188.14L1585.62 1225.64L1520.67 1188.14L1520.67 1113.14zM1780.48 288.14L1845.43 325.64L1845.43 400.64L1780.48 438.14L1715.53 400.64L1715.53 325.64zM1715.53 400.64L1780.48 438.14L1780.48 513.14L1715.53 550.64L1650.57 513.14L1650.57 438.14zM1715.53 625.64L1780.48 663.14L1780.48 738.14L1715.53 775.64L1650.57 738.14L1650.57 663.14zM1715.53 850.64L1780.48 888.14L1780.48 963.14L1715.53 1000.64L1650.57 963.14L1650.57 888.14zM1780.48 963.14L1845.43 1000.64L1845.43 1075.64L1780.48 1113.14L1715.53 1075.64L1715.53 1000.64zM1715.53 1075.64L1780.48 1113.14L1780.48 1188.14L1715.53 1225.64L1650.57 1188.14L1650.57 1113.14zM1910.39 63.14L1975.34 100.64L1975.34 175.64L1910.39 213.14L1845.43 175.64L1845.43 100.64zM1910.39 288.14L1975.34 325.64L1975.34 400.64L1910.39 438.14L1845.43 400.64L1845.43 325.64zM1845.43 400.64L1910.39 438.14L1910.39 513.14L1845.43 550.64L1780.48 513.14L1780.48 438.14zM1845.43 1075.64L1910.39 1113.14L1910.39 1188.14L1845.43 1225.64L1780.48 1188.14L1780.48 1113.14z" stroke="rgba(229, 230, 228, 1)" stroke-width="2"></path><path d="M84.18 63.14 a7.5 7.5 0 1 0 15 0 a7.5 7.5 0 1 0 -15 0zM149.14 100.64 a7.5 7.5 0 1 0 15 0 a7.5 7.5 0 1 0 -15 0zM149.14 175.64 a7.5 7.5 0 1 0 15 0 a7.5 7.5 0 1 0 -15 0zM84.18 213.14 a7.5 7.5 0 1 0 15 0 a7.5 7.5 0 1 0 -15 0zM19.23 175.64 a7.5 7.5 0 1 0 15 0 a7.5 7.5 0 1 0 -15 0zM19.23 100.64 a7.5 7.5 0 1 0 15 0 a7.5 7.5 0 1 0 -15 0zM149.14 -49.36 a7.5 7.5 0 1 0 15 0 a7.5 7.5 0 1 0 -15 0zM214.09 -11.86 a7.5 7.5 0 1 0 15 0 a7.5 7.5 0 1 0 -15 0zM214.09 63.14 a7.5 7.5 0 1 0 15 0 a7.5 7.5 0 1 0 -15 0zM84.18 -11.86 a7.5 7.5 0 1 0 15 0 a7.5 7.5 0 1 0 -15 0zM279.05 100.64 a7.5 7.5 0 1 0 15 0 a7.5 7.5 0 1 0 -15 0zM279.05 175.64 a7.5 7.5 0 1 0 15 0 a7.5 7.5 0 1 0 -15 0zM214.09 213.14 a7.5 7.5 0 1 0 15 0 a7.5 7.5 0 1 0 -15 0zM214.09 288.14 a7.5 7.5 0 1 0 15 0 a7.5 7.5 0 1 0 -15 0zM279.05 325.64 a7.5 7.5 0 1 0 15 0 a7.5 7.5 0 1 0 -15 0zM279.05 400.64 a7.5 7.5 0 1 0 15 0 a7.5 7.5 0 1 0 -15 0zM214.09 438.14 a7.5 7.5 0 1 0 15 0 a7.5 7.5 0 1 0 -15 0zM149.14 400.64 a7.5 7.5 0 1 0 15 0 a7.5 7.5 0 1 0 -15 0zM149.14 325.64 a7.5 7.5 0 1 0 15 0 a7.5 7.5 0 1 0 -15 0zM149.14 850.64 a7.5 7.5 0 1 0 15 0 a7.5 7.5 0 1 0 -15 0zM214.09 888.14 a7.5 7.5 0 1 0 15 0 a7.5 7.5 0 1 0 -15 0zM214.09 963.14 a7.5 7.5 0 1 0 15 0 a7.5 7.5 0 1 0 -15 0zM149.14 1000.64 a7.5 7.5 0 1 0 15 0 a7.5 7.5 0 1 0 -15 0zM84.18 963.14 a7.5 7.5 0 1 0 15 0 a7.5 7.5 0 1 0 -15 0zM84.18 888.14 a7.5 7.5 0 1 0 15 0 a7.5 7.5 0 1 0 -15 0zM344 63.14 a7.5 7.5 0 1 0 15 0 a7.5 7.5 0 1 0 -15 0zM408.95 100.64 a7.5 7.5 0 1 0 15 0 a7.5 7.5 0 1 0 -15 0zM408.95 175.64 a7.5 7.5 0 1 0 15 0 a7.5 7.5 0 1 0 -15 0zM344 213.14 a7.5 7.5 0 1 0 15 0 a7.5 7.5 0 1 0 -15 0zM279.05 850.64 a7.5 7.5 0 1 0 15 0 a7.5 7.5 0 1 0 -15 0zM344 888.14 a7.5 7.5 0 1 0 15 0 a7.5 7.5 0 1 0 -15 0zM344 963.14 a7.5 7.5 0 1 0 15 0 a7.5 7.5 0 1 0 -15 0zM279.05 1000.64 a7.5 7.5 0 1 0 15 0 a7.5 7.5 0 1 0 -15 0zM473.91 963.14 a7.5 7.5 0 1 0 15 0 a7.5 7.5 0 1 0 -15 0zM538.86 1000.64 a7.5 7.5 0 1 0 15 0 a7.5 7.5 0 1 0 -15 0zM538.86 1075.64 a7.5 7.5 0 1 0 15 0 a7.5 7.5 0 1 0 -15 0zM473.91 1113.14 a7.5 7.5 0 1 0 15 0 a7.5 7.5 0 1 0 -15 0zM408.95 1075.64 a7.5 7.5 0 1 0 15 0 a7.5 7.5 0 1 0 -15 0zM408.95 1000.64 a7.5 7.5 0 1 0 15 0 a7.5 7.5 0 1 0 -15 0zM603.81 63.14 a7.5 7.5 0 1 0 15 0 a7.5 7.5 0 1 0 -15 0zM668.77 100.64 a7.5 7.5 0 1 0 15 0 a7.5 7.5 0 1 0 -15 0zM668.77 175.64 a7.5 7.5 0 1 0 15 0 a7.5 7.5 0 1 0 -15 0zM603.81 213.14 a7.5 7.5 0 1 0 15 0 a7.5 7.5 0 1 0 -15 0zM538.86 175.64 a7.5 7.5 0 1 0 15 0 a7.5 7.5 0 1 0 -15 0zM538.86 100.64 a7.5 7.5 0 1 0 15 0 a7.5 7.5 0 1 0 -15 0zM603.81 513.14 a7.5 7.5 0 1 0 15 0 a7.5 7.5 0 1 0 -15 0zM668.77 550.64 a7.5 7.5 0 1 0 15 0 a7.5 7.5 0 1 0 -15 0zM668.77 625.64 a7.5 7.5 0 1 0 15 0 a7.5 7.5 0 1 0 -15 0zM603.81 663.14 a7.5 7.5 0 1 0 15 0 a7.5 7.5 0 1 0 -15 0zM538.86 625.64 a7.5 7.5 0 1 0 15 0 a7.5 7.5 0 1 0 -15 0zM538.86 550.64 a7.5 7.5 0 1 0 15 0 a7.5 7.5 0 1 0 -15 0zM603.81 738.14 a7.5 7.5 0 1 0 15 0 a7.5 7.5 0 1 0 -15 0zM538.86 775.64 a7.5 7.5 0 1 0 15 0 a7.5 7.5 0 1 0 -15 0zM473.91 738.14 a7.5 7.5 0 1 0 15 0 a7.5 7.5 0 1 0 -15 0zM473.91 663.14 a7.5 7.5 0 1 0 15 0 a7.5 7.5 0 1 0 -15 0zM668.77 775.64 a7.5 7.5 0 1 0 15 0 a7.5 7.5 0 1 0 -15 0zM668.77 850.64 a7.5 7.5 0 1 0 15 0 a7.5 7.5 0 1 0 -15 0zM603.81 888.14 a7.5 7.5 0 1 0 15 0 a7.5 7.5 0 1 0 -15 0zM538.86 850.64 a7.5 7.5 0 1 0 15 0 a7.5 7.5 0 1 0 -15 0zM668.77 -49.36 a7.5 7.5 0 1 0 15 0 a7.5 7.5 0 1 0 -15 0zM733.72 -11.86 a7.5 7.5 0 1 0 15 0 a7.5 7.5 0 1 0 -15 0zM733.72 63.14 a7.5 7.5 0 1 0 15 0 a7.5 7.5 0 1 0 -15 0zM603.81 -11.86 a7.5 7.5 0 1 0 15 0 a7.5 7.5 0 1 0 -15 0zM733.72 213.14 a7.5 7.5 0 1 0 15 0 a7.5 7.5 0 1 0 -15 0zM733.72 288.14 a7.5 7.5 0 1 0 15 0 a7.5 7.5 0 1 0 -15 0zM668.77 325.64 a7.5 7.5 0 1 0 15 0 a7.5 7.5 0 1 0 -15 0zM603.81 288.14 a7.5 7.5 0 1 0 15 0 a7.5 7.5 0 1 0 -15 0zM733.72 513.14 a7.5 7.5 0 1 0 15 0 a7.5 7.5 0 1 0 -15 0zM798.68 550.64 a7.5 7.5 0 1 0 15 0 a7.5 7.5 0 1 0 -15 0zM798.68 625.64 a7.5 7.5 0 1 0 15 0 a7.5 7.5 0 1 0 -15 0zM733.72 663.14 a7.5 7.5 0 1 0 15 0 a7.5 7.5 0 1 0 -15 0zM798.67 -49.36 a7.5 7.5 0 1 0 15 0 a7.5 7.5 0 1 0 -15 0zM863.63 -11.86 a7.5 7.5 0 1 0 15 0 a7.5 7.5 0 1 0 -15 0zM863.63 63.14 a7.5 7.5 0 1 0 15 0 a7.5 7.5 0 1 0 -15 0zM798.67 100.64 a7.5 7.5 0 1 0 15 0 a7.5 7.5 0 1 0 -15 0zM928.58 100.64 a7.5 7.5 0 1 0 15 0 a7.5 7.5 0 1 0 -15 0zM928.58 175.64 a7.5 7.5 0 1 0 15 0 a7.5 7.5 0 1 0 -15 0zM863.63 213.14 a7.5 7.5 0 1 0 15 0 a7.5 7.5 0 1 0 -15 0zM798.67 175.64 a7.5 7.5 0 1 0 15 0 a7.5 7.5 0 1 0 -15 0zM863.63 288.14 a7.5 7.5 0 1 0 15 0 a7.5 7.5 0 1 0 -15 0zM798.67 325.64 a7.5 7.5 0 1 0 15 0 a7.5 7.5 0 1 0 -15 0zM928.58 -49.36 a7.5 7.5 0 1 0 15 0 a7.5 7.5 0 1 0 -15 0zM993.54 -11.86 a7.5 7.5 0 1 0 15 0 a7.5 7.5 0 1 0 -15 0zM993.54 63.14 a7.5 7.5 0 1 0 15 0 a7.5 7.5 0 1 0 -15 0zM1058.49 100.64 a7.5 7.5 0 1 0 15 0 a7.5 7.5 0 1 0 -15 0zM1058.49 175.64 a7.5 7.5 0 1 0 15 0 a7.5 7.5 0 1 0 -15 0zM993.54 213.14 a7.5 7.5 0 1 0 15 0 a7.5 7.5 0 1 0 -15 0zM993.54 513.14 a7.5 7.5 0 1 0 15 0 a7.5 7.5 0 1 0 -15 0zM1058.49 550.64 a7.5 7.5 0 1 0 15 0 a7.5 7.5 0 1 0 -15 0zM1058.49 625.64 a7.5 7.5 0 1 0 15 0 a7.5 7.5 0 1 0 -15 0zM993.54 663.14 a7.5 7.5 0 1 0 15 0 a7.5 7.5 0 1 0 -15 0zM928.58 625.64 a7.5 7.5 0 1 0 15 0 a7.5 7.5 0 1 0 -15 0zM928.58 550.64 a7.5 7.5 0 1 0 15 0 a7.5 7.5 0 1 0 -15 0zM1123.44 63.14 a7.5 7.5 0 1 0 15 0 a7.5 7.5 0 1 0 -15 0zM1188.4 100.64 a7.5 7.5 0 1 0 15 0 a7.5 7.5 0 1 0 -15 0zM1188.4 175.64 a7.5 7.5 0 1 0 15 0 a7.5 7.5 0 1 0 -15 0zM1123.44 213.14 a7.5 7.5 0 1 0 15 0 a7.5 7.5 0 1 0 -15 0zM1123.44 288.14 a7.5 7.5 0 1 0 15 0 a7.5 7.5 0 1 0 -15 0zM1058.49 325.64 a7.5 7.5 0 1 0 15 0 a7.5 7.5 0 1 0 -15 0zM993.54 288.14 a7.5 7.5 0 1 0 15 0 a7.5 7.5 0 1 0 -15 0zM1058.49 400.64 a7.5 7.5 0 1 0 15 0 a7.5 7.5 0 1 0 -15 0zM1123.44 438.14 a7.5 7.5 0 1 0 15 0 a7.5 7.5 0 1 0 -15 0zM1123.44 513.14 a7.5 7.5 0 1 0 15 0 a7.5 7.5 0 1 0 -15 0zM993.54 438.14 a7.5 7.5 0 1 0 15 0 a7.5 7.5 0 1 0 -15 0zM1188.4 550.64 a7.5 7.5 0 1 0 15 0 a7.5 7.5 0 1 0 -15 0zM1188.4 625.64 a7.5 7.5 0 1 0 15 0 a7.5 7.5 0 1 0 -15 0zM1123.44 663.14 a7.5 7.5 0 1 0 15 0 a7.5 7.5 0 1 0 -15 0zM1058.49 1075.64 a7.5 7.5 0 1 0 15 0 a7.5 7.5 0 1 0 -15 0zM1123.44 1113.14 a7.5 7.5 0 1 0 15 0 a7.5 7.5 0 1 0 -15 0zM1123.44 1188.14 a7.5 7.5 0 1 0 15 0 a7.5 7.5 0 1 0 -15 0zM1058.49 1225.64 a7.5 7.5 0 1 0 15 0 a7.5 7.5 0 1 0 -15 0zM993.54 1188.14 a7.5 7.5 0 1 0 15 0 a7.5 7.5 0 1 0 -15 0zM993.54 1113.14 a7.5 7.5 0 1 0 15 0 a7.5 7.5 0 1 0 -15 0zM1253.35 63.14 a7.5 7.5 0 1 0 15 0 a7.5 7.5 0 1 0 -15 0zM1318.3 100.64 a7.5 7.5 0 1 0 15 0 a7.5 7.5 0 1 0 -15 0zM1318.3 175.64 a7.5 7.5 0 1 0 15 0 a7.5 7.5 0 1 0 -15 0zM1253.35 213.14 a7.5 7.5 0 1 0 15 0 a7.5 7.5 0 1 0 -15 0zM1253.35 513.14 a7.5 7.5 0 1 0 15 0 a7.5 7.5 0 1 0 -15 0zM1318.3 550.64 a7.5 7.5 0 1 0 15 0 a7.5 7.5 0 1 0 -15 0zM1318.3 625.64 a7.5 7.5 0 1 0 15 0 a7.5 7.5 0 1 0 -15 0zM1253.35 663.14 a7.5 7.5 0 1 0 15 0 a7.5 7.5 0 1 0 -15 0zM1188.4 850.64 a7.5 7.5 0 1 0 15 0 a7.5 7.5 0 1 0 -15 0zM1253.35 888.14 a7.5 7.5 0 1 0 15 0 a7.5 7.5 0 1 0 -15 0zM1253.35 963.14 a7.5 7.5 0 1 0 15 0 a7.5 7.5 0 1 0 -15 0zM1188.4 1000.64 a7.5 7.5 0 1 0 15 0 a7.5 7.5 0 1 0 -15 0zM1123.44 963.14 a7.5 7.5 0 1 0 15 0 a7.5 7.5 0 1 0 -15 0zM1123.44 888.14 a7.5 7.5 0 1 0 15 0 a7.5 7.5 0 1 0 -15 0zM1188.4 1075.64 a7.5 7.5 0 1 0 15 0 a7.5 7.5 0 1 0 -15 0zM1253.35 1113.14 a7.5 7.5 0 1 0 15 0 a7.5 7.5 0 1 0 -15 0zM1253.35 1188.14 a7.5 7.5 0 1 0 15 0 a7.5 7.5 0 1 0 -15 0zM1188.4 1225.64 a7.5 7.5 0 1 0 15 0 a7.5 7.5 0 1 0 -15 0zM1318.31 -49.36 a7.5 7.5 0 1 0 15 0 a7.5 7.5 0 1 0 -15 0zM1383.26 -11.86 a7.5 7.5 0 1 0 15 0 a7.5 7.5 0 1 0 -15 0zM1383.26 63.14 a7.5 7.5 0 1 0 15 0 a7.5 7.5 0 1 0 -15 0zM1318.31 100.64 a7.5 7.5 0 1 0 15 0 a7.5 7.5 0 1 0 -15 0zM1253.35 -11.86 a7.5 7.5 0 1 0 15 0 a7.5 7.5 0 1 0 -15 0zM1383.26 288.14 a7.5 7.5 0 1 0 15 0 a7.5 7.5 0 1 0 -15 0zM1448.21 325.64 a7.5 7.5 0 1 0 15 0 a7.5 7.5 0 1 0 -15 0zM1448.21 400.64 a7.5 7.5 0 1 0 15 0 a7.5 7.5 0 1 0 -15 0zM1383.26 438.14 a7.5 7.5 0 1 0 15 0 a7.5 7.5 0 1 0 -15 0zM1318.31 400.64 a7.5 7.5 0 1 0 15 0 a7.5 7.5 0 1 0 -15 0zM1318.31 325.64 a7.5 7.5 0 1 0 15 0 a7.5 7.5 0 1 0 -15 0zM1383.26 513.14 a7.5 7.5 0 1 0 15 0 a7.5 7.5 0 1 0 -15 0zM1318.31 550.64 a7.5 7.5 0 1 0 15 0 a7.5 7.5 0 1 0 -15 0zM1253.35 438.14 a7.5 7.5 0 1 0 15 0 a7.5 7.5 0 1 0 -15 0zM1448.21 550.64 a7.5 7.5 0 1 0 15 0 a7.5 7.5 0 1 0 -15 0zM1448.21 625.64 a7.5 7.5 0 1 0 15 0 a7.5 7.5 0 1 0 -15 0zM1383.26 663.14 a7.5 7.5 0 1 0 15 0 a7.5 7.5 0 1 0 -15 0zM1318.31 625.64 a7.5 7.5 0 1 0 15 0 a7.5 7.5 0 1 0 -15 0zM1383.26 738.14 a7.5 7.5 0 1 0 15 0 a7.5 7.5 0 1 0 -15 0zM1448.21 775.64 a7.5 7.5 0 1 0 15 0 a7.5 7.5 0 1 0 -15 0zM1448.21 850.64 a7.5 7.5 0 1 0 15 0 a7.5 7.5 0 1 0 -15 0zM1383.26 888.14 a7.5 7.5 0 1 0 15 0 a7.5 7.5 0 1 0 -15 0zM1318.31 850.64 a7.5 7.5 0 1 0 15 0 a7.5 7.5 0 1 0 -15 0zM1318.31 775.64 a7.5 7.5 0 1 0 15 0 a7.5 7.5 0 1 0 -15 0zM1513.17 63.14 a7.5 7.5 0 1 0 15 0 a7.5 7.5 0 1 0 -15 0zM1578.12 100.64 a7.5 7.5 0 1 0 15 0 a7.5 7.5 0 1 0 -15 0zM1578.12 175.64 a7.5 7.5 0 1 0 15 0 a7.5 7.5 0 1 0 -15 0zM1513.17 213.14 a7.5 7.5 0 1 0 15 0 a7.5 7.5 0 1 0 -15 0zM1448.21 175.64 a7.5 7.5 0 1 0 15 0 a7.5 7.5 0 1 0 -15 0zM1448.21 100.64 a7.5 7.5 0 1 0 15 0 a7.5 7.5 0 1 0 -15 0zM1513.17 288.14 a7.5 7.5 0 1 0 15 0 a7.5 7.5 0 1 0 -15 0zM1383.26 213.14 a7.5 7.5 0 1 0 15 0 a7.5 7.5 0 1 0 -15 0zM1513.17 888.14 a7.5 7.5 0 1 0 15 0 a7.5 7.5 0 1 0 -15 0zM1513.17 963.14 a7.5 7.5 0 1 0 15 0 a7.5 7.5 0 1 0 -15 0zM1448.21 1000.64 a7.5 7.5 0 1 0 15 0 a7.5 7.5 0 1 0 -15 0zM1383.26 963.14 a7.5 7.5 0 1 0 15 0 a7.5 7.5 0 1 0 -15 0zM1643.07 213.14 a7.5 7.5 0 1 0 15 0 a7.5 7.5 0 1 0 -15 0zM1643.07 288.14 a7.5 7.5 0 1 0 15 0 a7.5 7.5 0 1 0 -15 0zM1578.12 325.64 a7.5 7.5 0 1 0 15 0 a7.5 7.5 0 1 0 -15 0zM1578.12 400.64 a7.5 7.5 0 1 0 15 0 a7.5 7.5 0 1 0 -15 0zM1643.07 438.14 a7.5 7.5 0 1 0 15 0 a7.5 7.5 0 1 0 -15 0zM1643.07 513.14 a7.5 7.5 0 1 0 15 0 a7.5 7.5 0 1 0 -15 0zM1578.12 550.64 a7.5 7.5 0 1 0 15 0 a7.5 7.5 0 1 0 -15 0zM1513.17 513.14 a7.5 7.5 0 1 0 15 0 a7.5 7.5 0 1 0 -15 0zM1513.17 438.14 a7.5 7.5 0 1 0 15 0 a7.5 7.5 0 1 0 -15 0zM1578.12 850.64 a7.5 7.5 0 1 0 15 0 a7.5 7.5 0 1 0 -15 0zM1643.07 888.14 a7.5 7.5 0 1 0 15 0 a7.5 7.5 0 1 0 -15 0zM1643.07 963.14 a7.5 7.5 0 1 0 15 0 a7.5 7.5 0 1 0 -15 0zM1578.12 1000.64 a7.5 7.5 0 1 0 15 0 a7.5 7.5 0 1 0 -15 0zM1578.12 1075.64 a7.5 7.5 0 1 0 15 0 a7.5 7.5 0 1 0 -15 0zM1643.07 1113.14 a7.5 7.5 0 1 0 15 0 a7.5 7.5 0 1 0 -15 0zM1643.07 1188.14 a7.5 7.5 0 1 0 15 0 a7.5 7.5 0 1 0 -15 0zM1578.12 1225.64 a7.5 7.5 0 1 0 15 0 a7.5 7.5 0 1 0 -15 0zM1513.17 1188.14 a7.5 7.5 0 1 0 15 0 a7.5 7.5 0 1 0 -15 0zM1513.17 1113.14 a7.5 7.5 0 1 0 15 0 a7.5 7.5 0 1 0 -15 0zM1772.98 288.14 a7.5 7.5 0 1 0 15 0 a7.5 7.5 0 1 0 -15 0zM1837.93 325.64 a7.5 7.5 0 1 0 15 0 a7.5 7.5 0 1 0 -15 0zM1837.93 400.64 a7.5 7.5 0 1 0 15 0 a7.5 7.5 0 1 0 -15 0zM1772.98 438.14 a7.5 7.5 0 1 0 15 0 a7.5 7.5 0 1 0 -15 0zM1708.03 400.64 a7.5 7.5 0 1 0 15 0 a7.5 7.5 0 1 0 -15 0zM1708.03 325.64 a7.5 7.5 0 1 0 15 0 a7.5 7.5 0 1 0 -15 0zM1772.98 513.14 a7.5 7.5 0 1 0 15 0 a7.5 7.5 0 1 0 -15 0zM1708.03 550.64 a7.5 7.5 0 1 0 15 0 a7.5 7.5 0 1 0 -15 0zM1708.03 625.64 a7.5 7.5 0 1 0 15 0 a7.5 7.5 0 1 0 -15 0zM1772.98 663.14 a7.5 7.5 0 1 0 15 0 a7.5 7.5 0 1 0 -15 0zM1772.98 738.14 a7.5 7.5 0 1 0 15 0 a7.5 7.5 0 1 0 -15 0zM1708.03 775.64 a7.5 7.5 0 1 0 15 0 a7.5 7.5 0 1 0 -15 0zM1643.07 738.14 a7.5 7.5 0 1 0 15 0 a7.5 7.5 0 1 0 -15 0zM1643.07 663.14 a7.5 7.5 0 1 0 15 0 a7.5 7.5 0 1 0 -15 0zM1708.03 850.64 a7.5 7.5 0 1 0 15 0 a7.5 7.5 0 1 0 -15 0zM1772.98 888.14 a7.5 7.5 0 1 0 15 0 a7.5 7.5 0 1 0 -15 0zM1772.98 963.14 a7.5 7.5 0 1 0 15 0 a7.5 7.5 0 1 0 -15 0zM1708.03 1000.64 a7.5 7.5 0 1 0 15 0 a7.5 7.5 0 1 0 -15 0zM1837.93 1000.64 a7.5 7.5 0 1 0 15 0 a7.5 7.5 0 1 0 -15 0zM1837.93 1075.64 a7.5 7.5 0 1 0 15 0 a7.5 7.5 0 1 0 -15 0zM1772.98 1113.14 a7.5 7.5 0 1 0 15 0 a7.5 7.5 0 1 0 -15 0zM1708.03 1075.64 a7.5 7.5 0 1 0 15 0 a7.5 7.5 0 1 0 -15 0zM1772.98 1188.14 a7.5 7.5 0 1 0 15 0 a7.5 7.5 0 1 0 -15 0zM1708.03 1225.64 a7.5 7.5 0 1 0 15 0 a7.5 7.5 0 1 0 -15 0zM1902.89 63.14 a7.5 7.5 0 1 0 15 0 a7.5 7.5 0 1 0 -15 0zM1967.84 100.64 a7.5 7.5 0 1 0 15 0 a7.5 7.5 0 1 0 -15 0zM1967.84 175.64 a7.5 7.5 0 1 0 15 0 a7.5 7.5 0 1 0 -15 0zM1902.89 213.14 a7.5 7.5 0 1 0 15 0 a7.5 7.5 0 1 0 -15 0zM1837.93 175.64 a7.5 7.5 0 1 0 15 0 a7.5 7.5 0 1 0 -15 0zM1837.93 100.64 a7.5 7.5 0 1 0 15 0 a7.5 7.5 0 1 0 -15 0zM1902.89 288.14 a7.5 7.5 0 1 0 15 0 a7.5 7.5 0 1 0 -15 0zM1967.84 325.64 a7.5 7.5 0 1 0 15 0 a7.5 7.5 0 1 0 -15 0zM1967.84 400.64 a7.5 7.5 0 1 0 15 0 a7.5 7.5 0 1 0 -15 0zM1902.89 438.14 a7.5 7.5 0 1 0 15 0 a7.5 7.5 0 1 0 -15 0zM1902.89 513.14 a7.5 7.5 0 1 0 15 0 a7.5 7.5 0 1 0 -15 0zM1837.93 550.64 a7.5 7.5 0 1 0 15 0 a7.5 7.5 0 1 0 -15 0zM1902.89 1113.14 a7.5 7.5 0 1 0 15 0 a7.5 7.5 0 1 0 -15 0zM1902.89 1188.14 a7.5 7.5 0 1 0 15 0 a7.5 7.5 0 1 0 -15 0zM1837.93 1225.64 a7.5 7.5 0 1 0 15 0 a7.5 7.5 0 1 0 -15 0z" fill="rgba(229, 230, 228, 1)"></path><path d="M85.3 183.86L128.61 208.86L128.61 258.86L85.3 283.86L42 258.86L42 208.86zM42 408.86L85.3 433.86L85.3 483.86L42 508.86L-1.3 483.86L-1.3 433.86zM85.3 633.86L128.61 658.86L128.61 708.86L85.3 733.86L42 708.86L42 658.86zM42 708.86L85.3 733.86L85.3 783.86L42 808.86L-1.3 783.86L-1.3 733.86zM85.3 783.86L128.61 808.86L128.61 858.86L85.3 883.86L42 858.86L42 808.86zM171.91 333.86L215.21 358.86L215.21 408.86L171.91 433.86L128.61 408.86L128.61 358.86zM128.61 558.86L171.91 583.86L171.91 633.86L128.61 658.86L85.3 633.86L85.3 583.86zM171.91 933.86L215.21 958.86L215.21 1008.86L171.91 1033.86L128.61 1008.86L128.61 958.86zM128.61 1008.86L171.91 1033.86L171.91 1083.86L128.61 1108.86L85.3 1083.86L85.3 1033.86zM215.21 108.86L258.51 133.86L258.51 183.86L215.21 208.86L171.91 183.86L171.91 133.86zM215.21 258.86L258.51 283.86L258.51 333.86L215.21 358.86L171.91 333.86L171.91 283.86zM258.51 333.86L301.81 358.86L301.81 408.86L258.51 433.86L215.21 408.86L215.21 358.86zM258.51 483.86L301.81 508.86L301.81 558.86L258.51 583.86L215.21 558.86L215.21 508.86zM215.21 558.86L258.51 583.86L258.51 633.86L215.21 658.86L171.91 633.86L171.91 583.86zM215.21 1008.86L258.51 1033.86L258.51 1083.86L215.21 1108.86L171.91 1083.86L171.91 1033.86zM345.12 33.86L388.42 58.86L388.42 108.86L345.12 133.86L301.81 108.86L301.81 58.86zM301.81 108.86L345.12 133.86L345.12 183.86L301.81 208.86L258.51 183.86L258.51 133.86zM301.81 258.86L345.12 283.86L345.12 333.86L301.81 358.86L258.51 333.86L258.51 283.86zM345.12 483.86L388.42 508.86L388.42 558.86L345.12 583.86L301.81 558.86L301.81 508.86zM345.12 783.86L388.42 808.86L388.42 858.86L345.12 883.86L301.81 858.86L301.81 808.86zM301.81 858.86L345.12 883.86L345.12 933.86L301.81 958.86L258.51 933.86L258.51 883.86zM388.42 -41.14L431.72 -16.14L431.72 33.86L388.42 58.86L345.12 33.86L345.12 -16.14zM475.03 108.86L518.33 133.86L518.33 183.86L475.03 208.86L431.72 183.86L431.72 133.86zM518.33 183.86L561.63 208.86L561.63 258.86L518.33 283.86L475.03 258.86L475.03 208.86zM475.03 408.86L518.33 433.86L518.33 483.86L475.03 508.86L431.72 483.86L431.72 433.86zM518.33 933.86L561.63 958.86L561.63 1008.86L518.33 1033.86L475.03 1008.86L475.03 958.86zM475.03 1008.86L518.33 1033.86L518.33 1083.86L475.03 1108.86L431.72 1083.86L431.72 1033.86zM561.63 108.86L604.93 133.86L604.93 183.86L561.63 208.86L518.33 183.86L518.33 133.86zM604.93 183.86L648.24 208.86L648.24 258.86L604.93 283.86L561.63 258.86L561.63 208.86zM561.63 558.86L604.93 583.86L604.93 633.86L561.63 658.86L518.33 633.86L518.33 583.86zM561.63 858.86L604.93 883.86L604.93 933.86L561.63 958.86L518.33 933.86L518.33 883.86zM561.63 1008.86L604.93 1033.86L604.93 1083.86L561.63 1108.86L518.33 1083.86L518.33 1033.86zM691.54 183.86L734.84 208.86L734.84 258.86L691.54 283.86L648.24 258.86L648.24 208.86zM691.54 333.86L734.84 358.86L734.84 408.86L691.54 433.86L648.24 408.86L648.24 358.86zM648.24 708.86L691.54 733.86L691.54 783.86L648.24 808.86L604.93 783.86L604.93 733.86zM648.24 858.86L691.54 883.86L691.54 933.86L648.24 958.86L604.93 933.86L604.93 883.86zM734.84 408.86L778.14 433.86L778.14 483.86L734.84 508.86L691.54 483.86L691.54 433.86zM734.84 558.86L778.14 583.86L778.14 633.86L734.84 658.86L691.54 633.86L691.54 583.86zM778.14 633.86L821.45 658.86L821.45 708.86L778.14 733.86L734.84 708.86L734.84 658.86zM864.75 33.86L908.05 58.86L908.05 108.86L864.75 133.86L821.45 108.86L821.45 58.86zM821.45 108.86L864.75 133.86L864.75 183.86L821.45 208.86L778.14 183.86L778.14 133.86zM821.45 408.86L864.75 433.86L864.75 483.86L821.45 508.86L778.14 483.86L778.14 433.86zM821.45 708.86L864.75 733.86L864.75 783.86L821.45 808.86L778.14 783.86L778.14 733.86zM821.45 858.86L864.75 883.86L864.75 933.86L821.45 958.86L778.14 933.86L778.14 883.86zM864.75 933.86L908.05 958.86L908.05 1008.86L864.75 1033.86L821.45 1008.86L821.45 958.86zM908.05 408.86L951.35 433.86L951.35 483.86L908.05 508.86L864.75 483.86L864.75 433.86zM951.35 483.86L994.66 508.86L994.66 558.86L951.35 583.86L908.05 558.86L908.05 508.86zM994.66 -41.14L1037.96 -16.14L1037.96 33.86L994.66 58.86L951.35 33.86L951.35 -16.14zM994.66 108.86L1037.96 133.86L1037.96 183.86L994.66 208.86L951.35 183.86L951.35 133.86zM994.66 258.86L1037.96 283.86L1037.96 333.86L994.66 358.86L951.35 333.86L951.35 283.86zM1037.96 483.86L1081.26 508.86L1081.26 558.86L1037.96 583.86L994.66 558.86L994.66 508.86zM994.66 1008.86L1037.96 1033.86L1037.96 1083.86L994.66 1108.86L951.35 1083.86L951.35 1033.86zM1124.56 33.86L1167.87 58.86L1167.87 108.86L1124.56 133.86L1081.26 108.86L1081.26 58.86zM1081.26 258.86L1124.56 283.86L1124.56 333.86L1081.26 358.86L1037.96 333.86L1037.96 283.86zM1124.56 333.86L1167.87 358.86L1167.87 408.86L1124.56 433.86L1081.26 408.86L1081.26 358.86zM1081.26 408.86L1124.56 433.86L1124.56 483.86L1081.26 508.86L1037.96 483.86L1037.96 433.86zM1124.56 783.86L1167.87 808.86L1167.87 858.86L1124.56 883.86L1081.26 858.86L1081.26 808.86zM1124.56 933.86L1167.87 958.86L1167.87 1008.86L1124.56 1033.86L1081.26 1008.86L1081.26 958.86zM1167.87 108.86L1211.17 133.86L1211.17 183.86L1167.87 208.86L1124.56 183.86L1124.56 133.86zM1211.17 183.86L1254.47 208.86L1254.47 258.86L1211.17 283.86L1167.87 258.86L1167.87 208.86zM1211.17 333.86L1254.47 358.86L1254.47 408.86L1211.17 433.86L1167.87 408.86L1167.87 358.86zM1211.17 483.86L1254.47 508.86L1254.47 558.86L1211.17 583.86L1167.87 558.86L1167.87 508.86zM1211.17 783.86L1254.47 808.86L1254.47 858.86L1211.17 883.86L1167.87 858.86L1167.87 808.86zM1211.17 933.86L1254.47 958.86L1254.47 1008.86L1211.17 1033.86L1167.87 1008.86L1167.87 958.86zM1167.87 1008.86L1211.17 1033.86L1211.17 1083.86L1167.87 1108.86L1124.56 1083.86L1124.56 1033.86zM1254.47 -41.14L1297.77 -16.14L1297.77 33.86L1254.47 58.86L1211.17 33.86L1211.17 -16.14zM1297.77 33.86L1341.08 58.86L1341.08 108.86L1297.77 133.86L1254.47 108.86L1254.47 58.86zM1254.47 108.86L1297.77 133.86L1297.77 183.86L1254.47 208.86L1211.17 183.86L1211.17 133.86zM1297.77 333.86L1341.08 358.86L1341.08 408.86L1297.77 433.86L1254.47 408.86L1254.47 358.86zM1297.77 783.86L1341.08 808.86L1341.08 858.86L1297.77 883.86L1254.47 858.86L1254.47 808.86zM1254.47 858.86L1297.77 883.86L1297.77 933.86L1254.47 958.86L1211.17 933.86L1211.17 883.86zM1297.77 933.86L1341.08 958.86L1341.08 1008.86L1297.77 1033.86L1254.47 1008.86L1254.47 958.86zM1341.08 -41.14L1384.38 -16.14L1384.38 33.86L1341.08 58.86L1297.77 33.86L1297.77 -16.14zM1341.08 408.86L1384.38 433.86L1384.38 483.86L1341.08 508.86L1297.77 483.86L1297.77 433.86zM1384.38 483.86L1427.68 508.86L1427.68 558.86L1384.38 583.86L1341.08 558.86L1341.08 508.86zM1341.08 558.86L1384.38 583.86L1384.38 633.86L1341.08 658.86L1297.77 633.86L1297.77 583.86zM1384.38 933.86L1427.68 958.86L1427.68 1008.86L1384.38 1033.86L1341.08 1008.86L1341.08 958.86zM1427.68 258.86L1470.98 283.86L1470.98 333.86L1427.68 358.86L1384.38 333.86L1384.38 283.86zM1427.68 408.86L1470.98 433.86L1470.98 483.86L1427.68 508.86L1384.38 483.86L1384.38 433.86zM1427.68 558.86L1470.98 583.86L1470.98 633.86L1427.68 658.86L1384.38 633.86L1384.38 583.86zM1427.68 1008.86L1470.98 1033.86L1470.98 1083.86L1427.68 1108.86L1384.38 1083.86L1384.38 1033.86zM1514.29 108.86L1557.59 133.86L1557.59 183.86L1514.29 208.86L1470.98 183.86L1470.98 133.86zM1557.59 183.86L1600.89 208.86L1600.89 258.86L1557.59 283.86L1514.29 258.86L1514.29 208.86zM1557.59 333.86L1600.89 358.86L1600.89 408.86L1557.59 433.86L1514.29 408.86L1514.29 358.86zM1600.89 -41.14L1644.19 -16.14L1644.19 33.86L1600.89 58.86L1557.59 33.86L1557.59 -16.14zM1644.19 33.86L1687.5 58.86L1687.5 108.86L1644.19 133.86L1600.89 108.86L1600.89 58.86zM1644.19 633.86L1687.5 658.86L1687.5 708.86L1644.19 733.86L1600.89 708.86L1600.89 658.86zM1600.89 708.86L1644.19 733.86L1644.19 783.86L1600.89 808.86L1557.59 783.86L1557.59 733.86zM1644.19 783.86L1687.5 808.86L1687.5 858.86L1644.19 883.86L1600.89 858.86L1600.89 808.86zM1644.19 933.86L1687.5 958.86L1687.5 1008.86L1644.19 1033.86L1600.89 1008.86L1600.89 958.86zM1730.8 333.86L1774.1 358.86L1774.1 408.86L1730.8 433.86L1687.5 408.86L1687.5 358.86zM1687.5 708.86L1730.8 733.86L1730.8 783.86L1687.5 808.86L1644.19 783.86L1644.19 733.86zM1687.5 858.86L1730.8 883.86L1730.8 933.86L1687.5 958.86L1644.19 933.86L1644.19 883.86zM1730.8 933.86L1774.1 958.86L1774.1 1008.86L1730.8 1033.86L1687.5 1008.86L1687.5 958.86zM1687.5 1008.86L1730.8 1033.86L1730.8 1083.86L1687.5 1108.86L1644.19 1083.86L1644.19 1033.86zM1817.4 33.86L1860.71 58.86L1860.71 108.86L1817.4 133.86L1774.1 108.86L1774.1 58.86zM1774.1 108.86L1817.4 133.86L1817.4 183.86L1774.1 208.86L1730.8 183.86L1730.8 133.86zM1774.1 408.86L1817.4 433.86L1817.4 483.86L1774.1 508.86L1730.8 483.86L1730.8 433.86zM1817.4 933.86L1860.71 958.86L1860.71 1008.86L1817.4 1033.86L1774.1 1008.86L1774.1 958.86zM1860.71 -41.14L1904.01 -16.14L1904.01 33.86L1860.71 58.86L1817.4 33.86L1817.4 -16.14zM1860.71 108.86L1904.01 133.86L1904.01 183.86L1860.71 208.86L1817.4 183.86L1817.4 133.86zM1860.71 558.86L1904.01 583.86L1904.01 633.86L1860.71 658.86L1817.4 633.86L1817.4 583.86zM1860.71 708.86L1904.01 733.86L1904.01 783.86L1860.71 808.86L1817.4 783.86L1817.4 733.86zM1860.71 1008.86L1904.01 1033.86L1904.01 1083.86L1860.71 1108.86L1817.4 1083.86L1817.4 1033.86zM1990.61 33.86L2033.92 58.86L2033.92 108.86L1990.61 133.86L1947.31 108.86L1947.31 58.86zM1947.31 858.86L1990.61 883.86L1990.61 933.86L1947.31 958.86L1904.01 933.86L1904.01 883.86z" stroke="rgba(132, 117, 119, 1)" stroke-width="2"></path></g><defs><mask id="SvgjsMask1032"><rect width="1920" height="1080" fill="#ffffff"></rect></mask></defs></svg>